<?xml version="1.0" standalone="no"?><!DOCTYPE svg PUBLIC "-//W3C//DTD SVG 1.1//EN" "http://www.w3.org/Graphics/SVG/1.1/DTD/svg11.dtd"><svg t="1530161762147" class="icon" style="" viewBox="0 0 1753 1024" version="1.1" xmlns="http://www.w3.org/2000/svg" p-id="1469" xmlns:xlink="http://www.w3.org/1999/xlink" width="219.125" height="128"><defs><style type="text/css"></style></defs><path d="M827.321199 232.101948c-14.471888 0.357883-26.013611 4.018726-32.157266 11.422428-5.293684 6.3897-20.824309 16.1942-34.483505 21.897957-13.644284 5.703758-24.693917 13.539902-24.693918 17.245481 0 3.705579-53.906106 8.984351-119.756552 11.884693-105.471062 4.63011-129.374655 8.164203-199.907402 29.823572-29.055615 8.917248-56.769169 15.702111-76.654036 19.101998-3.973991 0.678486-7.649746 1.237678-10.952706 1.63284-3.295505 0.395162-6.09892 0.842516-8.619013 0.931987-2.520092 0.089471-4.659933 0-6.292773-0.231133-18.512982-2.721401-26.692097 1.222766-45.667345 22.829945-12.675018 14.442065-35.751007 33.104165-51.490397 41.477132-35.1098 18.684468-62.211971 41.454765-62.21197 52.191251 0 4.413889 14.263123 16.917421 31.687545 27.959598l31.687545 20.033985-23.299666 6.292773c-23.172915 6.054185-49.991762 28.421864-34.013783 28.421864 4.398977 0 17.961246 14.263123 30.047248 31.687545 57.857729 83.356883 175.377514 184.533351 214.356923 184.533351 5.711214 0 10.490441 2.863063 10.490441 6.292774s12.130738 21.883046 27.027612 41.007411c28.332393 36.369846 40.075425 42.871385 40.075425 22.598812 0-8.678659 4.473536-10.721574 16.074905-7.687026a43.795915 43.795915 0 0 0 12.354415 1.401708c1.297325-0.037279 2.475356-0.074559 3.727946-0.238589 14.963977-2.013091 26.095625-13.502622 29.823572-32.14981l4.190212-21.435692 84.341061-4.659934c23.187827-1.312237 46.83792-3.347696 66.17105-5.360787a669.106746 669.106746 0 0 0 25.163639-3.027092c6.956348-1.006546 12.302223-1.92362 15.381507-2.79596 16.82795-4.786683 29.219645-2.863063 50.088689 7.918158 2.385886 1.237678 4.704668 2.244224 6.993627 3.265681 16.000346 7.120378 29.55516 9.029086 43.095062 6.054186 1.289869-0.283324 2.773592-0.656119 4.197667-1.16312s2.877975-1.148208 4.428801-1.863973c46.606787-21.45806 148.417005-134.586324 148.417005-168.219857 0-2.184577-11.825046-3.959079-26.326758-3.959079h-26.565347l19.109454-27.735922c10.400971-15.299492 18.870865-31.739736 18.870865-36.340022 0-14.583727 24.082534-37.055788 44.96649-44.966491 1.610473-0.611383 3.34024-0.969266 4.898522-1.401707 3.109107-0.849972 6.09892-1.394252 8.850145-1.394252 12.153106 0 20.78703 4.04855 23.068533 6.523906 4.078373 4.4288 33.775195 31.083618 70.361262 63.37509 61.28744 54.077592 67.401272 57.544582 76.422903 45.197623 5.390611-7.366422 9.275131-16.432788 11.884693-26.796479 0.521913-2.065282 0.991634-4.115653 1.401708-6.285318 4.100741-21.733928 2.736313-48.440937-4.659933-76.885168-10.043088-38.599158-10.132559-46.823008 0-77.586022 9.282587-28.213099 9.975985-43.027958 3.258225-82.245955-4.510815-26.34167-9.975985-49.820277-12.115826-51.967574-2.139841-2.132385-28.563526 16.104729-58.715157 40.545146-53.414017 43.318738-83.58056 64.79171-107.178461 70.368717a57.954656 57.954656 0 0 1-7.687026 1.394252c-14.889418 1.424076-27.683731-3.951623-43.33365-14.210932l-21.20456-13.979799 23.530799-6.054185c12.913607-3.355152 23.530798-9.946161 23.530798-14.688109 0-4.734492-16.231479-24.164549-36.116346-43.33365-41.20872-39.724998-112.457233-67.692052-155.872898-66.633315z" fill="#FFFFFF" p-id="1470"></path><path d="M1205.931444 291.831106c23.940872 49.954483 8.112012 109.952053-5.33842 154.366808 13.211842 41.946854 25.126359 94.846414 8.939616 137.039313-23.54571 28.39204-59.840997-25.536433-85.675666-45.600242-32.507693-22.382591-61.630411-73.738781-104.009707-56.321815-43.221811 18.378776-46.629155 62.100132-71.405087 97.418697-23.366769 34.095798-29.637175 74.372532-66.655683 101.437424-69.041569 50.230351-153.367718 74.693136-238.543839 78.5702-79.472363 2.042915-164.007277 3.50427-242.212139-5.97217-61.772073-10.512809-103.457971-69.011745-145.531574-109.638906-29.771381-29.465689-65.112313-67.774067-80.225409-106.231563 65.298711-39.180717 71.576572-4.600286 105.046076 33.737916-16.805583-22.024708-34.669902-41.648618-53.257443-61.212882-35.370756-26.669729-85.780048-49.134335-34.259828-75.692225 20.809397-10.27422 64.075944-59.758982 58.662966 4.026182 4.920889 46.778272 14.896874 93.47453 65.440372 96.628373 49.805365-2.2144 61.168146-60.795351 61.861544-89.694392-0.879795-31.784472-28.817026-64.366724-40.172351-87.010271 36.720273-15.135463 87.75586-31.180544 125.974767-42.409119 74.365076-16.455156 151.242789-12.600459 226.927558-15.262213 41.342926-0.969266 87.442713-1.789414 128.20408 1.677576 51.028131 3.04946 71.464734 10.072911 102.593087 33.879577 41.931942 23.970696 63.926826 59.080496 117.363211 67.393817 51.386014-25.364948 87.278683-59.498026 132.289908-89.187392 7.947982-6.576098 25.79739-19.33313 33.983961-21.942693z" fill="#CDCDCD" p-id="1471"></path><path d="M1195.344076 318.530659c-53.279811 34.006328-73.112486 101.57163-159.049109 102.906235-60.556763 0.946898-121.046422-100.505437-207.11725-93.049545-112.852396-0.223677-233.220332-4.33933-350.889235 13.286402-57.880097 9.871602-85.623475 30.405131-125.810738 32.582252 41.79028 47.494038 66.46183 152.704144 1.789415 170.911434-17.469157-6.859422-86.913344 16.73848-103.465427-72.240147-5.711214-15.32186-5.59192-33.812475-10.154926-43.684077-13.062724 13.36096-45.249814 22.800121-52.877193 37.831201 14.531535 17.841952 30.658632 18.162555 47.039229 33.901946 8.947072 12.555724 19.37041 24.358402 29.107806 35.885212 28.831938 34.490961 34.14799 42.938488 33.536606 52.191251-9.662837 3.355152-25.238198-11.884693-42.036324-35.340933-11.124192-19.444969-42.699899-27.668819-64.881181-16.738479 44.302916 63.434737 107.014432 127.786549 165.826516 171.023272 52.012309 36.384758 143.242616 23.359313 221.663697 22.0769 139.999302-6.106376 219.889195 0.984178 304.29736-81.418352 41.492044-42.647708 65.678961-101.094453 102.220292-150.348081 30.397676-40.962676 83.804237-39.292556 122.395939-3.094196 36.772464 34.483505 45.212535 52.959208 85.556371 77.093934 26.841215-53.451297-10.468074-64.694783-20.779573-107.752565 6.874333-43.378385 46.316007-101.236115 23.63518-146.016208z" fill="#FFFFFF" p-id="1472"></path><path d="M266.652961 618.190453c-24.67155-25.372404-43.221811-47.754994-41.231089-49.753174s25.685551 18.766483 52.653517 46.12961 45.510771 49.745718 41.231088 49.745718c-4.294594 0-27.981966-20.757206-52.653516-46.122154zM605.978105 491.097301c-14.173653-17.148554-5.412978-24.857947-13.122372-41.492044-1.54337-3.325328-20.74975 7.940526-36.258007 16.813039-17.551172 10.035632-28.01179 15.791581-23.993064 22.949238 3.929256 7.008539 9.401881 5.062551 24.925051-2.661754 8.909792-4.436256 26.34167-13.062724 27.877583-10.311499 1.811782 3.258225-13.875417 11.168928-24.119813 16.731023-15.083271 8.194026-24.589535 9.148381-22.501885 16.201656 2.728857 9.200572 8.343144 4.794139 25.670639 4.898521 16.164376 0.089471 26.930685-0.909619 26.915774 1.841606-0.022368 3.563917-8.633924 4.108197-28.108717 5.688846-12.570636 1.021457-21.502795 1.677576-23.679916 8.499718-2.684121 8.469894 0.924531 10.691751 19.288395 14.665742 25.648272 5.547184 23.858857 12.294767-2.825783 6.031817-32.321296-7.590099-31.538427 2.482812 2.833239 22.651003 27.601716 16.1942 28.481511 18.550262 39.985954 1.92362 6.501539-9.394425 14.717933-31.836663 13.838137-51.400926-0.626295-13.890329 0.924531-23.769387-6.725215-33.029606z m-93.772766 63.889547c23.225107-17.640643 26.953053-46.651522 1.692488-70.532747 16.253847-13.65174 42.394207-37.0707 85.347607-49.671159 8.499718-2.490268 3.146387 33.573886 19.266027 53.242532 14.061814 17.163466 5.144566 64.508386-2.303871 80.687673-5.017816 10.915427-9.319866 21.010706-26.073258 35.810654-23.217651-9.931249-71.815161-35.840477-77.928993-49.536953zM410.111797 571.852078c32.664267-30.270925 61.071219-110.600716 48.836099-145.210971-4.413889-12.473709-1.476267-19.549351 2.997269-14.002167 34.766829 43.139797-23.590445 176.428795-60.183968 177.122193-7.336599 0.149118-4.577918-5.919979 8.3506-17.901599zM657.125531 534.430951c4.570462-14.397329 1.54337-42.148163-6.374789-54.18943-10.117647-15.388963-8.611556-27.914863 2.549916-17.148554 17.260392 16.649009 19.817763 75.244872 6.561185 93.235942-9.908882 13.450431-7.157657-7.962894-2.736312-21.897958zM1119.167217 501.580287c-28.01179-24.25402-32.992326-37.204906-12.287311-24.291299 26.058346 16.246391 57.768259 44.832284 46.599331 44.795005-6.151112-0.022368-20.988339-9.096189-34.31202-20.503706zM1144.666371 484.014203c-26.185096-13.830681-42.893752-28.459143-31.404221-28.459143 7.276952 0 70.063026 37.025964 70.063026 41.320558 0 6.225671-10.878148 1.811782-38.658805-12.861415zM211.360058 457.829107c-7.105466-7.105466-5.763405-24.649182 1.893797-24.649182 9.140925 0 16.484979 21.00325 8.961984 25.648272-3.347696 2.072738-8.231306 1.625385-10.855781-0.99909zM1052.80977 433.179925c2.535004-4.100741 30.457323-5.152022 46.860287-5.152022 17.983614 0 29.927954 1.483723 28.526247 5.152022-1.714855 4.503359-20.235293 7.358966-36.638258 7.358966-17.983614 0-41.529324-2.863063-38.748276-7.358966zM1116.18486 405.79443c0-6.792318 67.826258-33.193635 72.717324-28.30257 3.88452 3.88452-53.697341 33.596254-64.963195 33.596254-4.264771 0-7.754129-2.080194-7.754129-5.293684zM1108.579849 385.894652c17.275304-16.999436 67.162684-52.250898 71.673499-47.747539 2.25168 2.259136-11.705752 16.179288-31.031426 30.9345-35.40058 27.027612-57.917376 33.812475-40.642073 16.813039z" fill="" p-id="1473"></path><path d="M827.24664 232.064668c-14.471888 0.350427-25.775022 4.01127-31.918678 11.414972-5.30114 6.3897-20.831765 16.1942-34.483504 21.905414-13.65174 5.703758-24.932506 13.532446-24.932506 17.238024 0 3.705579-53.906106 8.991807-119.756553 11.884694-105.471062 4.637565-129.136066 8.164203-199.676269 29.823572-46.487493 14.270579-89.686936 23.351857-102.749661 21.435692-18.520438-2.721401-26.46842 1.230222-45.436212 22.8374-12.675018 14.442065-38.696084 28.951232-53.652606 38.643893-18.162555 11.772855-36.720273 27.795569-50.595689 32.261649-11.109281 3.571373-9.811955 9.655381-10.065456 23.411504-0.074559 4.421345 14.643374 16.499891 32.067796 27.534613l31.687545 20.04144-23.299666 6.054185c-23.172915 6.061641-49.76063 28.42932-33.782651 28.42932 4.398977 0 17.722658 14.255667 29.823572 31.687545 57.850273 83.349427 161.0622 180.894875 214.5806 184.533351 5.696302 0.387706 10.259309 2.863063 10.259308 6.292773s12.123282 21.87559 27.027612 41.007412c28.332393 36.36239 40.075425 42.871385 40.075425 22.591355 0-8.678659 4.46608-10.721574 16.074905-7.67957 23.016342 6.016906 40.932852-6.128744 45.898477-30.994147l4.428801-21.435692 84.102472-4.659933c46.375654-2.617018 94.413973-7.67957 106.716196-11.183839 16.82795-4.779227 29.219645-2.855607 50.096145 7.925614 19.094542 9.864146 34.841388 12.719753 50.327277 9.319866 41.126706-9.036542 156.797429-135.369193 156.797429-171.261861 0-2.177121-11.825046-3.951623-26.319302-3.951623h-26.334214l18.878321-27.735922c10.393515-15.299492 18.863409-31.739736 18.863409-36.340023 0-17.946334 36.697905-47.76245 58.722613-47.76245 12.153106 0 21.025618 4.041094 23.299666 6.523907 4.078373 4.4288 33.775195 31.083618 70.361261 63.37509 61.28744 54.077592 67.162684 57.78317 76.199227 45.428755 17.238025-23.575534 20.451514-64.456195 8.611556-109.974421-10.035632-38.591702-9.89397-47.05414 0.238588-77.82461 9.282587-28.205643 9.744852-43.020502 3.027093-82.2385-4.510815-26.349126-9.975985-49.589144-12.115826-51.728985-2.139841-2.139841-28.563526 16.097273-58.715157 40.53769-94.965709 76.997007-116.461048 84.66912-158.214049 57.320905l-20.965971-13.748667 23.299666-6.292773c12.913607-3.34024 23.538254-9.938705 23.538254-14.673198 0-4.741948-16.238935-24.179461-36.116346-43.341105-41.216176-39.724998-112.457233-67.699508-155.872898-66.633316z m21.674281 15.128007c-16.522259 7.411158-30.382764 11.034722-63.673326 37.577701-10.087823-0.820148-17.349863-0.536824-29.301659-0.298236 0.208765-5.808141 41.603883-20.891412 59.885732-39.971042 13.420607-1.178031 21.935237-1.028913 33.089253 2.684121z m16.224023 4.704669c7.657202 1.483723 12.242576 2.907798 17.670466 5.383154-11.27331 6.113832-29.063071 18.505526-37.204905 34.684814-11.832502-2.423165-24.060167-3.966535-41.82756-5.68139 20.772118-14.934154 34.744461-24.104902 61.361999-34.386578z m29.786293 11.14656c9.715029 3.019637 28.123628 10.453162 36.876846 17.528804-15.679743 3.220946-31.091074 12.913607-41.350382 21.204559-7.440981-2.25168-16.186744-5.867788-29.525336-8.3506 4.063462-12.026355 20.623-22.8374 33.998872-30.382763z m47.30764 24.231652c17.290216 9.230395 23.67246 15.433698 30.405132 22.911959-12.883783 5.420434-28.406952 10.542633-39.247821 15.977978-13.331137-7.500628-21.33131-12.540812-30.509514-19.064718 7.813776-8.05982 30.755558-17.595907 39.352203-19.825219z m259.666384 13.524989c0.350427-0.059647 0.574104-0.12675 0.693398 0 11.221119 11.213663 11.511899 82.514367 0.469722 116.267195-10.781221 32.955047-11.01981 39.352203-1.16312 58.245436 13.569725 26.028522 14.494256 84.698944 1.625385 102.294851-8.6041 11.765399-15.761758 7.381334-78.510553-47.069052-38.039966-33.007238-75.453637-60.116865-83.185398-60.116865-29.465689 0-50.752263 14.807403-66.402182 46.137066-8.872513 17.759937-27.959599 52.280721-42.401663 76.885168-14.449521 24.604447-28.004334 50.454028-30.293294 57.313449-6.904157 20.675191-79.062289 63.37509-137.702887 81.552557-48.791364 15.120551-73.201957 17.267848-211.792095 19.109454-185.927603 2.460445-183.004893 3.489358-274.936053-92.736397C206.692669 583.714404 172.813092 538.285648 185.816169 534.259466c43.520047-13.465343 49.044864-12.063635 75.960638 20.033984 14.61355 17.424422 28.198187 31.836663 28.280202 27.154362 0.357883-13.152195-69.026657-85.608563-92.214485-100.53526-28.585894-18.393688-28.26529-29.003424 6.986172-47.762451 13.301313-7.083098 28.384584-16.4477 33.551518-20.727382 7.358966-6.106376 9.491352 0.857428 9.789588 31.687545 0.894707 94.391605 83.841516 132.021497 122.791101 55.680609 19.668646-38.561878 18.438423-68.631495-4.4288-107.648183l-19.094542-32.619532 28.421864-7.925614c40.642073-11.288222 44.220901-10.251853 61.973382 14.680653 18.617365 26.140361 26.073258 24.112358 32.619532-8.626468 10.565-52.787722 32.850664-56.687154 56.851183-10.013264 22.412414 43.564783 33.760283 52.981575 48.463305 40.768823 6.151112-5.099831 11.183839-15.045992 11.183839-22.129091 0-7.083098 3.653388-23.433872 8.156747-36.347478 6.538818-18.744115 12.339503-23.538254 28.891585-23.538254 16.201655 0 22.96415 5.04764 30.524426 23.299666 10.594824 25.588625 42.140707 66.17105 51.490397 66.17105 5.405522 0 9.513719-9.043998 31.687545-68.96701 6.397156-17.275304 12.078547-20.503706 35.184359-20.503706 24.246564 0 28.257834 2.95999 36.116345 24.701374 4.88361 13.517534 13.592093 30.822661 19.340587 38.673716 13.94252 19.07963 31.068706 5.509905 37.74173-30.047248 2.66921-14.210932 6.292774-25.871949 7.925614-25.871949 7.530452 0 62.256706 34.901035 84.102472 53.592959 36.377302 31.105985 67.796435 45.339285 88.777318 40.075424 10.125103-2.535004 48.478216-28.526246 85.280504-57.552037 34.490961-27.214009 64.650048-48.247083 69.898996-49.164159z m-221.201432 19.571719c7.284407 5.621743 17.044171 15.985435 20.973427 19.251116-7.724305 4.704668-23.500975 8.462439-35.504962 11.944341-5.711214-4.645021-11.258398-8.037453-20.257661-16.872686 7.716849-5.59192 23.068533-10.975074 34.789196-14.315315z m-674.870151 38.673717c12.719753 0.037279 25.700463 7.977805 37.74173 23.769387 31.888854 41.797736 37.003597 63.934282 23.068533 100.423422-6.732671 17.633187-18.520438 35.549698-26.095625 39.605704-23.262386 12.451341-42.707355 8.126923-59.177423-12.81668l-15.61264-20.041441 24.231653-7.925614c48.426025-15.806493 42.975767-93.660927-6.523907-93.660927-19.161645 0-19.236204-0.357883-6.061641-14.911786 8.797954-9.715029 18.53535-14.464432 28.42932-14.442065z m-39.844292 60.347998c1.647752-0.298236 4.920889-0.208765 7.209849 0.231133 7.180025 1.386796 12.086002 5.338419 12.518444 14.374961 0.283324 6.031817-6.732671 11.27331-13.905241 12.652651-9.155837 1.767047-13.047813-2.281503-13.047812-13.510079 0-8.425159 2.266591-12.831592 7.22476-13.748666z m717.241991 190.945419c1.274958 0.805236-0.372795 4.741948-5.204213 12.458797-14.986345 1.140752-28.242923 1.327149-42.401664-0.223677 4.451168-7.761585 5.666479-13.204386 6.978716-13.592093a591.625106 591.625106 0 0 1 40.627161 1.356973z m-54.204342 25.141271c13.77849 2.274047 25.424595 2.259136 38.979408 1.767046-5.181846 7.239672-10.721574 14.956521-16.999436 22.598812-11.750487-0.350427-23.597901-0.991634-34.49096-4.428801 4.078373-6.531362 8.574277-12.988166 12.510988-19.937057z m-22.069443 33.685724c9.804499 4.205124 20.235293 5.025272 31.22528 5.59192a841.330417 841.330417 0 0 1-24.00052 25.625904c-13.100004 0.335515-21.905414-3.668299-28.190731-11.18384 7.381334-5.59192 14.61355-12.160561 20.965971-20.033984z m-37.972863 31.217824c9.797043 9.126013 19.541895 12.704842 29.584983 15.381507-8.044909 10.266765-18.087996 17.193289-28.183275 22.829944-12.749577-4.227491-30.420043-6.635745-35.191815-18.639732 5.17439-2.37843 9.76722-4.548095 12.585547-6.523907 4.965625-3.46699 12.548268-7.776496 21.20456-13.047812z m-57.089772 29.823572c7.344055 9.841779 28.749923 14.688109 43.341105 18.870865-11.079457 7.26204-21.323854 13.122372-25.394771 12.824136-15.262213-1.163119-46.770817-11.571546-43.341106-17.014348 1.289869-3.824873 12.65265-9.148381 25.394772-14.680653z m-331.228045 47.844465c7.411158 7.291863 12.757033 7.67957 16.924877-1.938532 4.391521-10.162382 7.120378-9.558455 7.217304 0.693398 0.059647 6.464259-7.992717 19.072174-17.707745 28.190731l-17.476613 16.552082-20.033985-24.395682c-11.541722-14.046902-20.630456-26.938141-15.456066-27.027612 8.976895-0.149118 10.095279-1.021457 21.420781 11.228575 21.115089 22.829944 34.744461 19.519528 15.28458 2.512636-17.200745-15.038536-11.556634-15.210022-4.712124-15.210021 9.864146 0 9.797043 4.71958 14.538991 9.394425z m49.536953-9.394425c7.858511 0 9.215484 5.219125 5.129654 20.503705-3.019637 11.27331-11.422428 21.666825-18.639732 23.061077-11.646105 2.244224-12.063635 0.551736-3.496814-14.911786 5.308596-9.588278 9.02163-19.989249 8.156747-23.068533-0.872339-3.071828 3.056916-5.59192 8.850145-5.591919zM1307.503073 606.529436c3.079284-15.381507 5.59192-34.669902 5.59192-42.871384s-2.512636-27.497333-5.59192-42.871385c-3.325328-16.641553-2.721401-27.959599 1.498635-27.959598 3.906888 0 9.34969 16.395509 12.10837 36.436948 5.673935 41.260912-1.774503 105.225017-12.250032 105.225018-4.056006 0-4.622654-11.653561-1.356973-27.959599zM1250.465492 621.88112c0.044735-3.317872 4.473536-21.130001 9.856691-39.583336 9.550999-32.783561 9.961073-55.367461 1.804326-100.654555-3.787594-21.04053-3.370064-21.510251 7.030907-7.89579 18.803762 24.626814 10.162382 136.293723-11.593914 149.729242-3.951623 2.438077-7.142745 1.722311-7.09801-1.595561zM1266.719339 370.706998c2.288959-31.598074-3.392431-55.02449-12.742121-74.722959-7.142745-15.045992-11.407516-30.06216-8.365512-31.978325 3.601196-2.266591 19.91469 22.949239 24.328579 44.101607 8.999263 43.095061 12.2724 96.740211-1.386796 100.423422-5.330963 1.438987-3.929256-8.812865-1.83415-37.823745zM1311.305579 340.629926c0.969266-15.642463-7.291863-49.633879-17.148554-71.188866-21.987428-48.05323-12.667562-50.357101 7.761585-5.815597 21.71156 47.330008 27.348215 106.470151 16.470067 102.458881-5.293684-1.953444-8.052364-9.789587-7.083098-25.454418zM294.903339 281.683636c-3.116563 0.12675-6.024362 0.380251-8.156747 0.931987-1.066193 0.275868-2.08765 0.507001-2.79596 1.163119-0.350427 0.328059-0.611383 0.849972-0.700854 1.401708s-0.014912 1.178031 0.238589 1.625384c1.50609 2.728857 4.749404 3.720491 8.619012 4.197668 3.862153 0.477177 8.574277 0.328059 13.979799 0 8.015085-0.484633 12.190385 2.274047 16.074906 5.823053 1.811782 1.655208 4.406433 5.04764 7.22476 7.925614 1.409164 1.438987 2.997269 2.818328 4.659933 3.727946s3.429711 1.304781 5.360787 0.931987c0.424986-0.082015 0.894707-0.365339 1.163119-0.700854s0.402618-0.58156 0.462266-0.931987a6.367333 6.367333 0 0 0-0.223677-2.333694 24.679006 24.679006 0 0 0-2.102562-5.353331c-2.050371-4.100741-5.189301-8.812865-8.156747-11.414972-7.239672-6.367333-11.720664-6.3897-19.571719-6.762495-2.877975-0.134206-9.834323-0.477177-16.074905-0.231133z" fill="" p-id="1474"></path><path d="M234.175091 99.103729c0 12.928518-11.027266 23.404048-24.626815 23.404048s-24.63427-10.47553-24.63427-23.404048 11.034722-23.396592 24.63427-23.396592 24.626814 10.47553 24.626815 23.396592z" fill="#FFFFFF" p-id="1475"></path><path d="M155.358846 202.136714a37.764098 37.764098 0 1 1-75.528195 0 37.764098 37.764098 0 0 1 75.528195 0zM217.757215 250.167576a14.367506 14.367506 0 1 1-28.735012 0 14.367506 14.367506 0 0 1 28.735012 0z" fill="#FFFFFF" p-id="1476"></path><path d="M790.511456 418.678213c4.71958-6.687936 2.915254-20.511162-5.002905-26.185096-10.117647-7.254584-8.611556-13.159651 2.549916-8.082188 17.260392 7.843599 21.025618 34.56552 6.561186 43.945033-9.864146 6.412068-8.529542-3.414799-4.108197-9.677749z" fill="" p-id="1477"></path><path d="M805.646918 412.780602c-11.221119-6.054185-9.789587-12.227664 2.244224-9.886514 21.778663 4.234947 18.132732 38.494775 3.563917 43.945033-12.56318 4.697213-6.538818-3.206034-1.230222-10.960163 6.315141-9.245307 4.495903-18.207291-4.577919-23.098356zM785.739684 469.646697c3.720491-7.284407 3.780138-18.6621-3.235857-25.543889-8.887424-8.723395-7.038363-14.427153 3.452078-8.082188 16.954701 10.259309 14.703021 33.059429 4.458624 43.945033-8.05982 8.574277-8.797954-2.244224-4.674845-10.318956zM838.676524 498.105841c-8.447527-9.618102-4.741948-17.148554 5.569552-10.527721 15.955611 10.251853 13.226754 45.622609 0.178942 44.437122-10.676839-0.969266 8.171659-18.073085-5.748494-33.909401z" fill="" p-id="1478"></path><path d="M857.018021 512.473347c-12.913607-1.990723-10.773765-11.370237 1.416619-10.043088 22.047075 2.400798 22.061987 35.340933 9.34969 45.38402-7.068187 5.59192-7.105466-4.063462-4.995448-8.924704 2.66921-6.128744 12.078547-16.298582-5.770861-26.416228zM834.352106 566.670232c6.837054-4.495903 13.167107-11.332957 8.007629-19.698469-5.763405-9.357146-1.461355-19.288395 7.13529-7.798864 11.869782 15.86614-2.274047 34.170357-16.552083 38.569335-11.258398 3.459534-6.166023-6.09892 1.409164-11.072002zM698.580295 611.457781c7.985261-6.292774 5.793229-19.974337-4.220035-26.714464-9.275131-6.240582-6.650657-12.630283 3.988903-8.082188 17.431878 7.455893 22.464605 36.794832 5.129654 43.952489-10.878148 4.488448-10.922883-4.413889-4.898522-9.155837z" fill="" p-id="1479"></path><path d="M716.474439 599.282308c-10.907971-6.598465-9.170748-14.352594 2.244223-9.886514 20.20547 7.895791 18.132732 38.494775 3.563917 43.945033-12.56318 4.697213-9.409337-5.741038-2.930166-9.260219 6.531362-3.556461 8.029997-18.199835-2.877974-24.7983z" fill="" p-id="1480"></path><path d="M700.071474 646.463199c5.830508-1.759591 6.024362-12.824136-1.67012-15.86614-9.014175-3.556461-7.396246-14.009623 3.452078-8.082188 17.372231 9.483896 11.85487 30.077072 0.931987 32.045428-11.280766 2.035459-9.998352-5.905067-2.713945-8.0971zM484.44705 649.385909c4.71958-6.687936 2.915254-20.511162-5.002904-26.192552-10.117647-7.254584-8.611556-13.152195 2.549915-8.082188 17.260392 7.851055 21.025618 34.572976 6.561186 43.952489-9.864146 6.404612-8.529542-3.414799-4.108197-9.677749z" fill="" p-id="1481"></path><path d="M497.271186 643.443562c-11.467163-5.562096-10.296588-11.795223 1.819238-9.968529 21.942693 3.302961 19.758116 37.689539 5.435345 43.758636-12.354415 5.226581-6.665568-2.92271-1.699943-10.900515 5.919979-9.506264 3.720491-18.378776-5.55464-22.882136zM476.916598 695.500607c5.189301-6.330053 7.672114-17.431878 2.281503-25.648272-6.829598-10.415882-3.802505-15.597728 5.092375-7.157657 14.389873 13.636828 7.321687 35.430403-5.002904 43.885386-9.707573 6.658112-8.119467-4.070918-2.370974-11.079457z" fill="" p-id="1482"></path></svg>